<svg width="25" height="24" viewBox="0 0 25 24" fill="none" xmlns="http://www.w3.org/2000/svg">
<mask id="mask0_585_4360" style="mask-type:alpha" maskUnits="userSpaceOnUse" x="0" y="0" width="25" height="24">
<rect x="0.571289" width="24" height="24" fill="#D9D9D9"/>
</mask>
<g mask="url(#mask0_585_4360)">
<path d="M4.87129 20.5C4.37129 20.5 3.94629 20.325 3.59629 19.975C3.24629 19.625 3.07129 19.2 3.07129 18.7V8.3C3.07129 7.8 3.24629 7.375 3.59629 7.025C3.94629 6.675 4.37129 6.5 4.87129 6.5H9.07129V4.8C9.07129 4.3 9.24629 3.875 9.59629 3.525C9.94629 3.175 10.3713 3 10.8713 3H14.2713C14.7713 3 15.1963 3.175 15.5463 3.525C15.8963 3.875 16.0713 4.3 16.0713 4.8V6.5H20.2713C20.7713 6.5 21.1963 6.675 21.5463 7.025C21.8963 7.375 22.0713 7.8 22.0713 8.3V18.7C22.0713 19.2 21.8963 19.625 21.5463 19.975C21.1963 20.325 20.7713 20.5 20.2713 20.5H4.87129ZM4.87129 19H20.2713C20.338 19 20.4046 18.9667 20.4713 18.9C20.538 18.8333 20.5713 18.7667 20.5713 18.7V8.3C20.5713 8.23333 20.538 8.16667 20.4713 8.1C20.4046 8.03333 20.338 8 20.2713 8H4.87129C4.80462 8 4.73796 8.03333 4.67129 8.1C4.60462 8.16667 4.57129 8.23333 4.57129 8.3V18.7C4.57129 18.7667 4.60462 18.8333 4.67129 18.9C4.73796 18.9667 4.80462 19 4.87129 19ZM10.5713 6.5H14.5713V4.8C14.5713 4.73333 14.538 4.66667 14.4713 4.6C14.4046 4.53333 14.338 4.5 14.2713 4.5H10.8713C10.8046 4.5 10.738 4.53333 10.6713 4.6C10.6046 4.66667 10.5713 4.73333 10.5713 4.8V6.5Z" fill="#1C1B1F"/>
</g>
</svg>
