<svg width="25" height="24" viewBox="0 0 25 24" fill="none" xmlns="http://www.w3.org/2000/svg">
<mask id="mask0_651_3194" style="mask-type:alpha" maskUnits="userSpaceOnUse" x="0" y="0" width="25" height="24">
<rect x="0.571289" width="24" height="24" fill="#D9D9D9"/>
</mask>
<g mask="url(#mask0_651_3194)">
<path d="M5.87129 20.5C5.37129 20.5 4.94629 20.325 4.59629 19.975C4.24629 19.625 4.07129 19.2 4.07129 18.7V5.3C4.07129 4.8 4.24629 4.375 4.59629 4.025C4.94629 3.675 5.37129 3.5 5.87129 3.5H19.2713C19.7713 3.5 20.1963 3.675 20.5463 4.025C20.8963 4.375 21.0713 4.8 21.0713 5.3V18.7C21.0713 19.2 20.8963 19.625 20.5463 19.975C20.1963 20.325 19.7713 20.5 19.2713 20.5H5.87129ZM5.87129 19H11.8213V5H5.87129C5.80462 5 5.73796 5.03333 5.67129 5.1C5.60462 5.16667 5.57129 5.23333 5.57129 5.3V18.7C5.57129 18.7667 5.60462 18.8333 5.67129 18.9C5.73796 18.9667 5.80462 19 5.87129 19ZM13.3213 19H19.2713C19.338 19 19.4046 18.9667 19.4713 18.9C19.538 18.8333 19.5713 18.7667 19.5713 18.7V12H13.3213V19ZM13.3213 10.5H19.5713V5.3C19.5713 5.23333 19.538 5.16667 19.4713 5.1C19.4046 5.03333 19.338 5 19.2713 5H13.3213V10.5Z" fill="#1C1B1F"/>
</g>
</svg>
