<svg width="1422" height="1024" viewBox="0 0 1422 1024" fill="none" xmlns="http://www.w3.org/2000/svg">
<ellipse opacity="0.15" cx="564.483" cy="590.29" rx="564.483" ry="590.29" transform="matrix(-0.962426 0.271546 -0.246607 -0.969116 1377.68 614.118)" fill="#1F2A3C"/>
<ellipse opacity="0.8" cx="364.573" cy="390.377" rx="364.573" ry="390.377" transform="matrix(-0.960435 0.278505 -0.240337 -0.97069 1125.78 453.858)" fill="#2C384B"/>
<path opacity="0.5" d="M1100.82 1150.01C1076.33 1051.07 1088.56 945.689 1134.9 856.382C1181.24 767.075 1258.02 700.923 1348.83 672.063C1439.64 643.203 1537.28 653.923 1620.88 701.932C1704.49 749.941 1767.42 831.432 1796.25 928.992C1825.07 1026.55 1817.5 1132.44 1775.14 1224.04C1732.78 1315.64 1659.01 1385.67 1569.57 1419.18C1480.13 1452.69 1382.13 1447.02 1296.51 1403.38C1210.89 1359.73 1144.43 1281.58 1111.34 1185.62L1220.29 1141.62C1242.76 1206.81 1287.9 1259.89 1346.06 1289.53C1404.21 1319.18 1470.78 1323.03 1531.53 1300.27C1592.27 1277.51 1642.39 1229.94 1671.16 1167.72C1699.93 1105.51 1705.07 1033.58 1685.49 967.318C1665.91 901.053 1623.16 845.702 1566.38 813.093C1509.59 780.484 1443.27 773.203 1381.59 792.805C1319.91 812.408 1267.76 857.339 1236.29 917.999C1204.81 978.659 1196.5 1050.24 1213.14 1117.44L1100.82 1150.01Z" fill="#2C384B"/>
<ellipse opacity="0.8" cx="223.121" cy="248.917" rx="223.121" ry="248.917" transform="matrix(-0.956745 0.290929 -0.229791 -0.97324 896.167 315.574)" fill="#1E293B"/>
</svg>
