<svg width="17" height="20" viewBox="0 0 17 20" fill="none" xmlns="http://www.w3.org/2000/svg">
<path d="M4.72716 10.2236C4.72716 9.73722 4.38924 9.44666 3.7934 9.44666C3.5502 9.44666 3.38572 9.47034 3.29932 9.49338V11.0556C3.40172 11.0787 3.52716 11.087 3.69932 11.087C4.33484 11.087 4.72716 10.7651 4.72716 10.2236Z" fill="white"/>
<path d="M8.41757 9.46228C8.15069 9.46228 7.97789 9.48596 7.87549 9.50964V12.9708C7.97789 12.9944 8.14237 12.9944 8.29149 12.9944C9.37437 13.0021 10.0809 12.4056 10.0809 11.1423C10.0892 10.0434 9.44541 9.46228 8.41757 9.46228Z" fill="white"/>
<path d="M15.4875 7.42882H15.0536V5.33538C15.0536 5.32258 15.0517 5.30914 15.0498 5.2957C15.0491 5.2125 15.0229 5.13122 14.9659 5.06594L11.4824 1.0877C11.4811 1.08642 11.4805 1.08642 11.4798 1.08514C11.4587 1.0621 11.435 1.0429 11.4094 1.02626C11.4018 1.02114 11.3941 1.01666 11.3864 1.01282C11.364 1.00066 11.341 0.990416 11.3166 0.983376C11.3102 0.981456 11.3045 0.978896 11.2974 0.976976C11.2712 0.970576 11.2437 0.966736 11.2162 0.966736H2.65488C2.26384 0.966736 1.9464 1.28482 1.9464 1.67522V7.42882H1.51248C0.95312 7.42882 0.5 7.88194 0.5 8.4413V13.7072C0.5 14.2659 0.95376 14.7197 1.51248 14.7197H1.9464V18.3248C1.9464 18.7152 2.26384 19.0333 2.65488 19.0333H14.3451C14.7355 19.0333 15.0536 18.7152 15.0536 18.3248V14.7197H15.4875C16.0469 14.7197 16.5 14.2659 16.5 13.7072V8.4413C16.5 7.88194 16.0462 7.42882 15.4875 7.42882ZM2.65488 1.67522H10.8616V5.30018C10.8616 5.49602 11.0203 5.6541 11.2162 5.6541H14.3458V7.42882H2.65488V1.67522ZM11.3525 11.1024C11.3525 12.1149 10.9838 12.8138 10.4725 13.2451C9.91568 13.7079 9.06832 13.928 8.03216 13.928C7.412 13.928 6.97296 13.8883 6.67408 13.8499V8.65378C7.11376 8.58338 7.68656 8.54434 8.29136 8.54434C9.29552 8.54434 9.94704 8.72482 10.4571 9.10946C11.0069 9.51714 11.3525 10.1687 11.3525 11.1024ZM2.11344 13.8736V8.65378C2.48208 8.59106 3.00048 8.54434 3.73008 8.54434C4.468 8.54434 4.99408 8.68578 5.34672 8.96802C5.684 9.2349 5.9112 9.67458 5.9112 10.1923C5.9112 10.7107 5.73904 11.1498 5.4248 11.448C5.01648 11.8327 4.41232 12.0055 3.70576 12.0055C3.54896 12.0055 3.40752 11.9978 3.29808 11.9818V13.8736H2.11344ZM14.3451 18.1328H2.65488V14.7197H14.3451V18.1328ZM15.3717 9.5645H13.3384V10.7735H15.2379V11.7469H13.3384V13.8736H12.1384V8.58338H15.3717V9.5645Z" fill="white"/>
</svg>
