<svg width="24" height="24" viewBox="0 0 24 24" fill="none" xmlns="http://www.w3.org/2000/svg">
<g id="manage_accounts">
<mask id="mask0_510_1017" style="mask-type:alpha" maskUnits="userSpaceOnUse" x="0" y="0" width="24" height="24">
<rect id="Bounding box" width="24" height="24" fill="#D9D9D9"/>
</mask>
<g mask="url(#mask0_510_1017)">
<path id="manage_accounts_2" d="M10 11.7C9.03333 11.7 8.20833 11.354 7.525 10.662C6.84167 9.97068 6.5 9.15001 6.5 8.20001C6.5 7.23335 6.84167 6.40835 7.525 5.72501C8.20833 5.04168 9.03333 4.70001 10 4.70001C10.9667 4.70001 11.7917 5.04168 12.475 5.72501C13.1583 6.40835 13.5 7.23335 13.5 8.20001C13.5 9.15001 13.1583 9.97068 12.475 10.662C11.7917 11.354 10.9667 11.7 10 11.7ZM2.5 19.3V17.075C2.5 16.575 2.62933 16.1207 2.888 15.712C3.146 15.304 3.50833 14.9833 3.975 14.75C4.79167 14.35 5.68333 14.0083 6.65 13.725C7.61667 13.4417 8.73333 13.3 10 13.3H10.3C10.3833 13.3 10.4667 13.3167 10.55 13.35C10.45 13.5833 10.3667 13.8207 10.3 14.062C10.2333 14.304 10.1833 14.55 10.15 14.8H10C8.85 14.8 7.82933 14.9333 6.938 15.2C6.046 15.4667 5.28333 15.7667 4.65 16.1C4.43333 16.2167 4.27067 16.3583 4.162 16.525C4.054 16.6917 4 16.875 4 17.075V17.8H10.3C10.3667 18.0667 10.4627 18.329 10.588 18.587C10.7127 18.8457 10.8417 19.0833 10.975 19.3H2.5ZM16.1 20.05L15.875 18.725C15.6417 18.6583 15.421 18.5667 15.213 18.45C15.0043 18.3333 14.8 18.1917 14.6 18.025L13.35 18.45L12.625 17.25L13.675 16.4C13.5917 16.1333 13.55 15.875 13.55 15.625C13.55 15.375 13.5917 15.125 13.675 14.875L12.65 14L13.35 12.8L14.6 13.25C14.7833 13.0667 14.9833 12.9207 15.2 12.812C15.4167 12.704 15.6417 12.6167 15.875 12.55L16.1 11.225H17.525L17.75 12.55C17.9833 12.6167 18.2083 12.7083 18.425 12.825C18.6417 12.9417 18.8417 13.0917 19.025 13.275L20.275 12.8L20.975 14.025L19.95 14.9C20.0333 15.1333 20.075 15.3833 20.075 15.65C20.075 15.9167 20.0333 16.1667 19.95 16.4L21 17.25L20.275 18.45L19.025 18.025C18.825 18.1917 18.621 18.3333 18.413 18.45C18.2043 18.5667 17.9833 18.6583 17.75 18.725L17.525 20.05H16.1ZM16.8 17.55C17.3333 17.55 17.7833 17.3627 18.15 16.988C18.5167 16.6127 18.7 16.1583 18.7 15.625C18.7 15.1083 18.5167 14.6623 18.15 14.287C17.7833 13.9123 17.3333 13.725 16.8 13.725C16.2833 13.725 15.8377 13.9123 15.463 14.287C15.0877 14.6623 14.9 15.1083 14.9 15.625C14.9 16.1583 15.0877 16.6127 15.463 16.988C15.8377 17.3627 16.2833 17.55 16.8 17.55ZM10 10.2C10.55 10.2 11.021 10.004 11.413 9.61201C11.8043 9.22068 12 8.75001 12 8.20001C12 7.65001 11.8043 7.17901 11.413 6.78701C11.021 6.39568 10.55 6.20001 10 6.20001C9.45 6.20001 8.97933 6.39568 8.588 6.78701C8.196 7.17901 8 7.65001 8 8.20001C8 8.75001 8.196 9.22068 8.588 9.61201C8.97933 10.004 9.45 10.2 10 10.2Z" fill="#1C1B1F"/>
</g>
</g>
</svg>
