<svg width="24" height="24" viewBox="0 0 24 24" fill="none" xmlns="http://www.w3.org/2000/svg">
<g id="summarize">
<mask id="mask0_510_3285" style="mask-type:alpha" maskUnits="userSpaceOnUse" x="0" y="0" width="24" height="24">
<rect id="Bounding box" y="3.05176e-05" width="24" height="24" fill="#D9D9D9"/>
</mask>
<g mask="url(#mask0_510_3285)">
<path id="summarize_2" d="M8 8.90003C8.25 8.90003 8.46233 8.81236 8.637 8.63703C8.81233 8.46236 8.9 8.25003 8.9 8.00003C8.9 7.75003 8.81233 7.53736 8.637 7.36203C8.46233 7.18736 8.25 7.10003 8 7.10003C7.75 7.10003 7.53767 7.18736 7.363 7.36203C7.18767 7.53736 7.1 7.75003 7.1 8.00003C7.1 8.25003 7.18767 8.46236 7.363 8.63703C7.53767 8.81236 7.75 8.90003 8 8.90003ZM8 12.9C8.25 12.9 8.46233 12.8124 8.637 12.637C8.81233 12.4624 8.9 12.25 8.9 12C8.9 11.75 8.81233 11.5377 8.637 11.363C8.46233 11.1877 8.25 11.1 8 11.1C7.75 11.1 7.53767 11.1877 7.363 11.363C7.18767 11.5377 7.1 11.75 7.1 12C7.1 12.25 7.18767 12.4624 7.363 12.637C7.53767 12.8124 7.75 12.9 8 12.9ZM8 16.9C8.25 16.9 8.46233 16.8124 8.637 16.637C8.81233 16.4624 8.9 16.25 8.9 16C8.9 15.75 8.81233 15.5377 8.637 15.363C8.46233 15.1877 8.25 15.1 8 15.1C7.75 15.1 7.53767 15.1877 7.363 15.363C7.18767 15.5377 7.1 15.75 7.1 16C7.1 16.25 7.18767 16.4624 7.363 16.637C7.53767 16.8124 7.75 16.9 8 16.9ZM5.3 20.5C4.8 20.5 4.375 20.325 4.025 19.975C3.675 19.625 3.5 19.2 3.5 18.7V5.30003C3.5 4.80003 3.675 4.37503 4.025 4.02503C4.375 3.67503 4.8 3.50003 5.3 3.50003H15.8L20.5 8.20003V18.7C20.5 19.2 20.325 19.625 19.975 19.975C19.625 20.325 19.2 20.5 18.7 20.5H5.3ZM5.3 19H18.7C18.7833 19 18.8543 18.971 18.913 18.913C18.971 18.8544 19 18.7834 19 18.7V9.00003H15V5.00003H5.3C5.21667 5.00003 5.146 5.02936 5.088 5.08803C5.02933 5.14603 5 5.2167 5 5.30003V18.7C5 18.7834 5.02933 18.8544 5.088 18.913C5.146 18.971 5.21667 19 5.3 19Z" fill="#1C1B1F"/>
</g>
</g>
</svg>
