<svg width="21" height="20" viewBox="0 0 21 20" fill="none" xmlns="http://www.w3.org/2000/svg">
<path d="M18 4.98332C15.225 4.70832 12.4333 4.56665 9.65 4.56665C8 4.56665 6.35 4.64998 4.7 4.81665L3 4.98332" stroke="#FF0000" stroke-width="1.5" stroke-linecap="round" stroke-linejoin="round"/>
<path d="M7.5835 4.14169L7.76683 3.05002C7.90016 2.25835 8.00016 1.66669 9.4085 1.66669H11.5918C13.0002 1.66669 13.1085 2.29169 13.2335 3.05835L13.4168 4.14169" stroke="#FF0000" stroke-width="1.5" stroke-linecap="round" stroke-linejoin="round"/>
<path d="M16.2082 7.61664L15.6665 16.0083C15.5748 17.3166 15.4998 18.3333 13.1748 18.3333H7.82484C5.49984 18.3333 5.42484 17.3166 5.33317 16.0083L4.7915 7.61664" stroke="#FF0000" stroke-width="1.5" stroke-linecap="round" stroke-linejoin="round"/>
<path d="M9.1084 13.75H11.8834" stroke="#FF0000" stroke-width="1.5" stroke-linecap="round" stroke-linejoin="round"/>
<path d="M8.4165 10.4167H12.5832" stroke="#FF0000" stroke-width="1.5" stroke-linecap="round" stroke-linejoin="round"/>
</svg>
