<svg width="18" height="18" viewBox="0 0 18 18" fill="none" xmlns="http://www.w3.org/2000/svg">
<g clip-path="url(#clip0_93_9731)">
<path d="M16.5817 6.88861H16.1191L16.1434 5.18761C16.1405 5.0882 16.1022 4.9931 16.0354 4.91941L12.061 0.570612C12.0291 0.534129 11.99 0.504597 11.9462 0.483851C11.9024 0.463104 11.8548 0.451586 11.8063 0.450012H3.4903C3.30384 0.453006 3.12582 0.528223 2.99371 0.659831C2.8616 0.791439 2.7857 0.969171 2.782 1.15561V6.88861H2.3185C2.062 6.88861 1.8145 6.99481 1.6345 7.18381C1.45084 7.3759 1.34889 7.63176 1.3501 7.89751V13.1445C1.3501 13.7007 1.7839 14.1525 2.3185 14.1525H2.782V17.7435C2.78549 17.9304 2.86153 18.1086 2.99405 18.2405C3.12657 18.3723 3.30518 18.4475 3.4921 18.45H15.4423C15.8158 18.45 16.1443 18.1332 16.1443 17.7444V14.1534H16.5826C17.1172 14.1534 17.551 13.7007 17.551 13.1436V7.89661C17.551 7.63021 17.4493 7.37281 17.2675 7.18381C17.1793 7.09099 17.0732 7.01699 16.9557 6.96626C16.8381 6.91552 16.7115 6.88911 16.5835 6.88861H16.5817ZM4.0051 1.69021H10.2655V5.80951C10.2652 5.90226 10.3006 5.99157 10.3645 6.05881C10.3955 6.09139 10.4328 6.11736 10.4741 6.13515C10.5154 6.15294 10.5598 6.16218 10.6048 6.16231H14.8879V6.88861H4.0051V1.69021ZM4.0051 17.2098V14.1525H14.8879V17.2098H4.0051ZM11.512 1.81801L11.8585 2.20861L14.1805 4.77631L14.3092 4.93201H11.9359C11.7559 4.93201 11.6434 4.90231 11.5957 4.84201C11.548 4.78351 11.5201 4.68901 11.512 4.56031V1.81801Z" fill="white"/>
<path d="M6.62076 13.033L5.61976 11.528L4.73776 13.033H3.37976L4.95476 10.534L3.34476 8.11896H4.73776L5.72476 9.60296L6.59276 8.11896H7.95076L6.38976 10.597L8.01376 13.033H6.62076ZM9.81166 12.109H11.3797V13.033H8.61466V8.11896H9.81166V12.109ZM13.7286 13.082C13.3693 13.082 13.0473 13.0236 12.7626 12.907C12.4779 12.7903 12.2493 12.6176 12.0766 12.389C11.9086 12.1603 11.8199 11.885 11.8106 11.563H13.0846C13.1033 11.745 13.1663 11.885 13.2736 11.983C13.3809 12.0763 13.5209 12.123 13.6936 12.123C13.8709 12.123 14.0109 12.0833 14.1136 12.004C14.2163 11.92 14.2676 11.8056 14.2676 11.661C14.2676 11.5396 14.2256 11.4393 14.1416 11.36C14.0623 11.2806 13.9619 11.2153 13.8406 11.164C13.7239 11.1126 13.5559 11.0543 13.3366 10.989C13.0193 10.891 12.7603 10.793 12.5596 10.695C12.3589 10.597 12.1863 10.4523 12.0416 10.261C11.8969 10.0696 11.8246 9.81996 11.8246 9.51196C11.8246 9.05463 11.9903 8.69763 12.3216 8.44096C12.6529 8.17963 13.0846 8.04896 13.6166 8.04896C14.1579 8.04896 14.5943 8.17963 14.9256 8.44096C15.2569 8.69763 15.4343 9.05696 15.4576 9.51896H14.1626C14.1533 9.36029 14.0949 9.23663 13.9876 9.14796C13.8803 9.05463 13.7426 9.00796 13.5746 9.00796C13.4299 9.00796 13.3133 9.04763 13.2246 9.12696C13.1359 9.20163 13.0916 9.31129 13.0916 9.45596C13.0916 9.61463 13.1663 9.73829 13.3156 9.82696C13.4649 9.91563 13.6983 10.0113 14.0156 10.114C14.3329 10.2213 14.5896 10.324 14.7856 10.422C14.9863 10.52 15.1589 10.6623 15.3036 10.849C15.4483 11.0356 15.5206 11.276 15.5206 11.57C15.5206 11.85 15.4483 12.1043 15.3036 12.333C15.1636 12.5616 14.9583 12.7436 14.6876 12.879C14.4169 13.0143 14.0973 13.082 13.7286 13.082Z" fill="#0176D3"/>
</g>
<defs>
<clipPath id="clip0_93_9731">
<rect width="18" height="18" fill="white"/>
</clipPath>
</defs>
</svg>
